<svg id="visual" viewBox="0 0 900 600" width="900" height="600" xmlns="http://www.w3.org/2000/svg" xmlns:xlink="http://www.w3.org/1999/xlink" version="1.1"><rect x="0" y="0" width="900" height="600" fill="#f1f1f1"></rect><path d="M0 363L150 438L300 422L450 386L600 427L750 439L900 407L900 601L750 601L600 601L450 601L300 601L150 601L0 601Z" fill="#168700"></path><path d="M0 426L150 411L300 441L450 403L600 460L750 435L900 407L900 601L750 601L600 601L450 601L300 601L150 601L0 601Z" fill="#107501"></path><path d="M0 503L150 495L300 466L450 457L600 472L750 459L900 493L900 601L750 601L600 601L450 601L300 601L150 601L0 601Z" fill="#0a6301"></path><path d="M0 515L150 496L300 491L450 528L600 502L750 536L900 515L900 601L750 601L600 601L450 601L300 601L150 601L0 601Z" fill="#055201"></path><path d="M0 536L150 547L300 561L450 533L600 546L750 565L900 538L900 601L750 601L600 601L450 601L300 601L150 601L0 601Z" fill="#034200"></path></svg>